<svg xmlns="http://www.w3.org/2000/svg" viewBox="0 0 1106.02 634.55">
  <defs>
    <style>.cls-2{fill:#d5dbdb}.cls-3{fill:#889596}.cls-4{fill:#b8dde2}.cls-5{fill:#fff}.cls-6{fill:#9fcbce}.cls-8{fill:#cde6e0}.cls-11{fill:#eff5ed}.cls-12{fill:#cee0ad}</style>
  </defs>
  <g id="Layer_2" data-name="Layer 2">
    <g id="kettle">
      <path id="background" d="M1106 401.13H0s-3.86 163 286.1 163c214 0 381.91 70.42 601.91 70.42S1106 401.13 1106 401.13z" style="fill:#eaeded"/>
      <g id="echo">
        <path id="echo-shadow" class="cls-2" d="M562.47 429.56c-.09 5.76 122.28 10.44 232.75 10.44s167.2-4.67 167.29-10.43-56.5-10.42-167-10.42-232.95 4.66-233.04 10.41z"/>
        <path id="echo-back" class="cls-3" d="M1012.92 155.71h7.17v262.5l-61.88 21.43 54.71-283.93z"/>
        <path id="echo-front" class="cls-4" d="M787.69 155.71h225.23l-54.71 283.93H732.97l54.72-283.93z"/>
        <path id="echo-display" class="cls-5" d="M785.49 288.76h178.35l19.83-102.91H805.33l-19.84 102.91z"/>
        <path class="cls-6" d="M741.54 431.43H952.8l23.25-120.62H764.78l-23.24 120.62z" id="echo-speaker"/>
        <ellipse id="echo-camera" class="cls-5" cx="896.38" cy="176.07" rx="2.97" ry="2.45" transform="rotate(-42.03 896.392 176.077)"/>
        <path id="echo-bezel" class="cls-5" d="M953 431.72H741.19l.07-.34 51.59-267.75h211.86l-.07.34zm-211.15-.58h210.72L1004 164.21H793.33z"/>
        <path class="cls-4" d="M817.5 225.31a10.11 10.11 0 0 0 4.54-1 9.64 9.64 0 0 0 3.44-2.78 10 10 0 0 0 1.88-4.06 5.68 5.68 0 0 0-.78-4.86 5.22 5.22 0 0 0-4.41-1.84 12.27 12.27 0 0 0-5.34 1.39 12.13 12.13 0 0 1 2.66-5.4 5.76 5.76 0 0 1 4.3-1.69 12.85 12.85 0 0 1 2.43.25 9.91 9.91 0 0 1 2.19.64l.74-3.44a7.52 7.52 0 0 0-2.31-.9 12.19 12.19 0 0 0-2.81-.33 10.09 10.09 0 0 0-5.49 1.56 13 13 0 0 0-4.21 4.46 22.65 22.65 0 0 0-2.59 6.87q-1.2 5.55.24 8.34t5.52 2.79zm-1.31-10.07a9.89 9.89 0 0 1 3.65-.83 2.85 2.85 0 0 1 2.4.91 3 3 0 0 1 .33 2.6q-.78 3.62-4.05 3.61a2.3 2.3 0 0 1-2.44-1.49 9.86 9.86 0 0 1 .11-4.8zm17.74-1.76a3.39 3.39 0 0 0 2.26-.83 3.8 3.8 0 0 0 1.28-2.15 2.57 2.57 0 0 0-.34-2.16 2.25 2.25 0 0 0-1.91-.83 3.41 3.41 0 0 0-2.26.83 3.73 3.73 0 0 0-1.27 2.16 2.56 2.56 0 0 0 .33 2.15 2.26 2.26 0 0 0 1.91.83zm-4.46 10.94a2.26 2.26 0 0 0 1.91.83 3.44 3.44 0 0 0 2.27-.83 3.77 3.77 0 0 0 1.26-2.16 2.52 2.52 0 0 0-.33-2.15 2.25 2.25 0 0 0-1.91-.83 3.41 3.41 0 0 0-2.26.83 3.74 3.74 0 0 0-1.27 2.15 2.57 2.57 0 0 0 .33 2.16zm15.26.4h4.75l4.97-22.98h-4.2l-6.89 2.92-.82 3.78 6.11-1.86-3.92 18.14zm23.17-.48a9.71 9.71 0 0 0 3.57-2.71 9.11 9.11 0 0 0 1.87-3.91 5.72 5.72 0 0 0-.88-5.09 6 6 0 0 0-4.88-1.9 12.25 12.25 0 0 0-2.84.33l1.53-5.44h8.67l.82-3.78h-12.61l-2.71 9.85-.65 3a48.51 48.51 0 0 1 5.33-.33 4.15 4.15 0 0 1 3 .85 2.72 2.72 0 0 1 .45 2.63 4.42 4.42 0 0 1-1.61 2.72 5.19 5.19 0 0 1-3.22.93 18.46 18.46 0 0 1-6.08-1.26l-.8 3.71a13.76 13.76 0 0 0 6.27 1.39 11.53 11.53 0 0 0 4.77-.99zm15.96-13.81a14.64 14.64 0 0 0-2.85.28 10.49 10.49 0 0 0-2.5.81l-.42 1.92a15.55 15.55 0 0 1 4.85-.85 2.73 2.73 0 0 1 2.08.6 2.41 2.41 0 0 1 .2 2.08l-.39 1.81a12.38 12.38 0 0 0-3.24-.47 6.58 6.58 0 0 0-4 1.19 5.2 5.2 0 0 0-2.07 3.19 3.43 3.43 0 0 0 .49 3 3.32 3.32 0 0 0 2.77 1.11 6.91 6.91 0 0 0 2.39-.46 9.55 9.55 0 0 0 2.39-1.32l-.1 1.43h2.17l2.15-9.92a3.62 3.62 0 0 0-.48-3.29c-.6-.76-1.77-1.11-3.44-1.11zm0 11.19a7.46 7.46 0 0 1-4 1.4 1.73 1.73 0 0 1-1.46-.56 1.89 1.89 0 0 1-.22-1.6c.35-1.59 1.52-2.38 3.52-2.38a10.22 10.22 0 0 1 2.73.35zm24.84-8.35a3 3 0 0 1 .07 2l-2 9.42h2.62l2.21-10.19a3.82 3.82 0 0 0-.32-3 2.93 2.93 0 0 0-2.58-1.06 10.65 10.65 0 0 0-5.67 1.94c-.3-1.3-1.27-1.94-2.92-1.94a10.43 10.43 0 0 0-5.34 1.8v-1.39h-2.2l-3 13.88h2.62l2.36-10.9a8.36 8.36 0 0 1 4.13-1.2 1.49 1.49 0 0 1 1.45.65 3.09 3.09 0 0 1 .07 2l-2 9.42h2.62l2.17-10 .09-.44a3.52 3.52 0 0 0 .07-.41 8.66 8.66 0 0 1 4.16-1.23 1.48 1.48 0 0 1 1.39.65z" id="echo-display-text"/>
      </g>
      <path id="cream-kettle-shadow" class="cls-2" d="M57.51 426.43c0 6.23 177.88 11.28 338.37 11.28s242.81-5 242.81-11.28-82.33-11.28-242.81-11.28-338.37 5.05-338.37 11.28z"/>
      <g id="kettle-2" data-name="kettle">
        <path id="kettle-top" class="cls-3" d="M506.47 61.03h9.81v13.5h-9.81z"/>
        <path id="kettle-body" class="cls-3" d="m683.68 258.22-34.56-125c-4.7-17.16-19.77-28.4-35.94-26.71l-11.5 1.31-3.1-24.06a7.3 7.3 0 0 0-6.94-6.17H440.35a7.29 7.29 0 0 0-6.92 6.09L430.06 102l-32.83.13a6.71 6.71 0 0 0-5.41 3 9.33 9.33 0 0 0-1.08 8.34L416 178.8l-25.09 214.54a33 33 0 0 0 6.44 27.32 26.86 26.86 0 0 0 20.77 10.2h193.64a26.83 26.83 0 0 0 21-10.41 31.85 31.85 0 0 0 5.92-26.77l-10-77.28 37.79-16.86c14.72-6.81 21.94-24.17 17.21-41.32zm-25.61 23L626 295.55l-21.74-167.76 11.1-1.26c6.32-.65 12.22 4.28 14.33 12l34.57 125c2.13 7.76-.42 15.02-6.19 17.68z"/>
        <path id="kettle-line" style="fill:#fafafa" d="M600.15 95.99H431.16l.19-1h168.67l.13 1z"/>
      </g>
      <g id="mug">
        <path id="mug-shadow" class="cls-2" d="M655.68 468.25c0 1.76-20.16 3.19-73.75 3.19s-120.3-1.43-120.3-3.19 66.71-3.19 120.3-3.19 73.75 1.43 73.75 3.19z"/>
        <g id="mug-body">
          <path id="mug-body-container" class="cls-4" d="M587.75 352.54h60A42.23 42.23 0 0 1 690 394.77V470H545.52v-75.23a42.23 42.23 0 0 1 42.23-42.23z" transform="rotate(180 617.77 411.25)"/>
        </g>
        <ellipse id="mug-interior" class="cls-6" cx="617.77" cy="352.54" rx="72.25" ry="8.26"/>
        <path id="mug-handle" class="cls-4" d="M706 376.55a23.52 23.52 0 1 0 23.52 23.51A23.52 23.52 0 0 0 706 376.55zm-3 33.77c-6.23 0-11.28-4.59-11.28-10.26s5.05-10.25 11.28-10.25 11.28 4.59 11.28 10.25-5.11 10.26-11.34 10.26z"/>
      </g>
      <g id="cream">
        <path id="cream-package-side" class="cls-8" d="m356.84 196.79-17.14-36.66h.17V149.5a4.7 4.7 0 0 0-4.79-4.61H218a4.7 4.7 0 0 0-4.78 4.61v10.63L232.9 209l-9.81 212.3h129.43a9.87 9.87 0 0 0 10.05-9.67V222.45a60.4 60.4 0 0 0-5.73-25.66z"/>
        <path id="cream-package-front" d="m213.23 160.13-17.15 36.66a60.54 60.54 0 0 0-5.72 25.66v189.21a9.86 9.86 0 0 0 10 9.67H227a9.87 9.87 0 0 0 10.05-9.67V222.45a60.54 60.54 0 0 0-5.72-25.66z" style="fill:#b4d1ca"/>
        <g id="cream-labels">
          <path d="M246.74 260.17h33.96v11.16h-33.96zm0 17.22h108.55v17.44H246.74zm-.27 125.21h20.96v7.24h-20.96z" style="fill:#eefaf5"/>
          <ellipse class="cls-11" cx="301.01" cy="337.69" rx="31.25" ry="30.09"/>
          <path class="cls-11" d="m302.01 144.89.12 15.24 20.93 48.01h-40.18l-20.93-48.01v-15.24h40.06z"/>
        </g>
        <path id="cream-fold" class="cls-5" d="M213.23 159.56h126.48v1.14H213.23z"/>
      </g>
      <g id="music">
        <path id="music-eigth-yellow" class="cls-12" d="M855 47.61c-2.45-5.47-14.35 1.9-11.95 7.9l-.2.07 9 24-18.21 14.66L825 71.56c4.34 1.37 11.59-5.84 9.64-10.2-2.46-5.48-14.38 1.92-11.94 7.91l-.18.07L834 99.6l20.85-16.39-9.5-25.41C849.68 59.23 857 52 855 47.61z"/>
        <path id="music-eighth-yellow" class="cls-8" d="M971.42 90.15 958.27 46l-31.48 21.21 10.83 36.85c-6-2.13-16.75 7.17-14.46 13.47 2.89 8 20.44-1.21 17.68-9.92l.48-.14-10.26-34.89L958 54l9.74 32.69c-6-2-16.7 7.22-14.42 13.49 2.9 8 20.49-1.23 17.67-9.94z"/>
        <path id="music-eighth-orange" class="cls-4" d="m805.67 130.23-6-40.77-30.58 14.75 4.87 34c-5.05-2.65-15.75 4.21-14.53 10.07 1.54 7.42 18.25 1.55 16.92-6.51l.44-.07-4.61-32.2 26.2-13 4.43 30.19c-5.07-2.59-15.71 4.25-14.49 10.09 1.55 7.43 18.29 1.54 16.91-6.54z"/>
        <path id="music-eighth-yellow-2" data-name="music-eighth-yellow" class="cls-12" d="M704 10.07 671.54 0l-19.66 28.26c-1.89-5.39-14.42-7.68-17.53-2.55-3.94 6.5 12.33 13.61 16.85 6.79l.37.26 18.32-26.33L698 14.82l-17.12 24.72c-2-5.35-14.42-7.6-17.52-2.49-3.94 6.51 12.36 13.62 16.87 6.76l.34.24zm-33.51-4.51 2-2.85 27.87 8.64-1.81 2.65z"/>
        <path id="music-quarter-pink" class="cls-8" d="M731.85 97.61h.07L715.08 55l-1.7.67 15.31 38.73c-6.33-2.29-17.1 8.61-14.11 15 3.7 7.97 20.95-3.09 17.27-11.79z"/>
      </g>
    </g>
  </g>
</svg>
