<svg xmlns="http://www.w3.org/2000/svg" viewBox="0 0 291.319 291.319" style="enable-background:new 0 0 291.319 291.319" xml:space="preserve">
  <path fill="#f4b459" d="M252.089 239.901c-120.033 57.126-194.528 9.331-242.214-19.7-2.95-1.83-7.966.428-3.614 5.426 15.886 19.263 67.95 65.692 135.909 65.692 68.005 0 108.462-37.107 113.523-43.58 5.026-6.418 1.476-9.959-3.604-7.838zm33.711-18.617c-3.223-4.197-19.6-4.98-29.906-3.714-10.324 1.229-25.818 7.538-24.471 11.325.692 1.42 2.103.783 9.195.146 7.11-.71 27.029-3.223 31.18 2.203 4.17 5.462-6.354 31.49-8.275 35.687-1.857 4.197.71 5.28 4.197 2.485 3.441-2.795 9.668-10.032 13.847-20.274 4.151-10.297 6.682-24.663 4.233-27.858z"/>
  <path fill="#484848" d="M221.71 149.219V53.557C221.71 37.125 205.815 0 148.689 0 91.572 0 61.184 35.696 61.184 67.85l47.74 4.27s10.633-32.136 35.313-32.136 22.987 19.992 22.987 24.316v20.784C135.607 86.149 57.096 95.18 57.096 161.382c0 71.191 89.863 74.177 119.332 28.167 1.138 1.866 2.431 3.696 4.051 5.408 10.843 11.398 25.308 24.981 25.308 24.981l36.852-36.415c.019-.01-20.929-16.452-20.929-34.304zm-109.199 3.359c0-30.579 32.764-36.779 54.722-37.507v26.319c-.009 52.137-54.722 44.244-54.722 11.188z"/>
</svg>